name rise43.5482peak65.4966fall89.1036.mot
datacolumns 19
datarows 23
range 6.37496800000000 6.41164000000000
endheader
time	ground_force1_vx	ground_force1_vy	ground_force1_vz	ground_force1_px	ground_force1_py	ground_force1_pz	ground_force2_vx	ground_force2_vy	ground_force2_vz	ground_force2_px	ground_force2_py	ground_force2_pz	ground_torque1_x	ground_torque1_y	ground_torque1_z	ground_torque2_x	ground_torque2_y	ground_torque2_z	
6.37496800000000	-8.09219500000000	45.21649000000000	-11.92790900000000	0.26437600000000	0.00000000000000	0.09267600000000	-58.27184900000000	808.22240699999998	-49.00499400000000	0.06010800000000	0.00000000000000	-0.08358400000000	0.00000000000000	-5.99812200000000	0.00000000000000	0.00000000000000	-13.65137900000000	0.00000000000000	
6.37663600000000	-8.68561900000000	51.69674400000000	-13.09665400000000	0.26811300000000	0.00000000000000	0.09357600000000	-59.25913200000000	805.66861400000005	-48.66438500000000	0.05917000000000	0.00000000000000	-0.08344700000000	0.00000000000000	-6.66568200000000	0.00000000000000	0.00000000000000	-13.69353200000000	0.00000000000000	
6.37830100000000	-9.12257300000000	58.11640400000000	-14.11003700000000	0.27165100000000	0.00000000000000	0.09441300000000	-60.25652500000000	802.97364100000004	-48.30766600000000	0.05823400000000	0.00000000000000	-0.08330600000000	0.00000000000000	-7.26964000000000	0.00000000000000	0.00000000000000	-13.73856200000000	0.00000000000000	
6.37997200000000	-9.39048600000000	64.41141900000000	-14.94990900000000	0.27501300000000	0.00000000000000	0.09519600000000	-61.26269600000000	800.13400200000001	-47.93455100000000	0.05730100000000	0.00000000000000	-0.08316400000000	0.00000000000000	-7.79926500000000	0.00000000000000	0.00000000000000	-13.78630700000000	0.00000000000000	
6.38163700000000	-9.48468500000000	70.54252200000001	-15.60791700000000	0.27821800000000	0.00000000000000	0.09593000000000	-62.27621600000000	797.14622199999997	-47.54477200000000	0.05637000000000	0.00000000000000	-0.08301800000000	0.00000000000000	-8.24856600000000	0.00000000000000	0.00000000000000	-13.83659000000000	0.00000000000000	
6.38330400000000	-9.40768200000000	76.49469999999999	-16.08477300000000	0.28127900000000	0.00000000000000	0.09662200000000	-63.29556000000000	794.00684000000001	-47.13807800000000	0.05544400000000	0.00000000000000	-0.08287000000000	0.00000000000000	-8.61607400000000	0.00000000000000	0.00000000000000	-13.88921200000000	0.00000000000000	
6.38497600000000	-9.16799500000000	82.27475099999999	-16.38890100000000	0.28420900000000	0.00000000000000	0.09727600000000	-64.31910800000000	790.71242800000005	-46.71423500000000	0.05452100000000	0.00000000000000	-0.08271900000000	0.00000000000000	-8.90429400000000	0.00000000000000	0.00000000000000	-13.94395800000000	0.00000000000000	
6.38663600000000	-8.77868700000000	87.90747200000000	-16.53468800000000	0.28701900000000	0.00000000000000	0.09789600000000	-65.34514700000000	787.25959999999998	-46.27303500000000	0.05360300000000	0.00000000000000	-0.08256600000000	0.00000000000000	-9.11892200000000	0.00000000000000	0.00000000000000	-14.00059500000000	0.00000000000000	
6.38830100000000	-8.25578600000000	93.43103600000001	-16.54054500000000	0.28971600000000	0.00000000000000	0.09848600000000	-66.37187200000000	783.64502700000003	-45.81428900000000	0.05269100000000	0.00000000000000	-0.08240900000000	0.00000000000000	-9.26792800000000	0.00000000000000	0.00000000000000	-14.05887300000000	0.00000000000000	
6.38997300000000	-7.61673800000000	98.89206900000001	-16.42697500000000	0.29230900000000	0.00000000000000	0.09904900000000	-67.39738800000001	779.86544800000001	-45.33783900000000	0.05178400000000	0.00000000000000	-0.08225000000000	0.00000000000000	-9.36061700000000	0.00000000000000	0.00000000000000	-14.11852200000000	0.00000000000000	
6.39163500000000	-6.87901700000000	104.34088900000000	-16.21480800000000	0.29480200000000	0.00000000000000	0.09958700000000	-68.41971400000000	775.91768600000000	-44.84355100000000	0.05088300000000	0.00000000000000	-0.08208900000000	0.00000000000000	-9.40673000000000	0.00000000000000	0.00000000000000	-14.17925900000000	0.00000000000000	
6.39330000000000	-6.05897200000000	109.82726000000000	-15.92370600000000	0.29720000000000	0.00000000000000	0.10010200000000	-69.43678700000000	771.79865800000005	-44.33132500000000	0.04998800000000	0.00000000000000	-0.08192400000000	0.00000000000000	-9.41566900000000	0.00000000000000	0.00000000000000	-14.24078400000000	0.00000000000000	
6.39497100000000	-5.17096300000000	115.39689400000000	-15.57102000000000	0.29950900000000	0.00000000000000	0.10059700000000	-70.44646400000001	767.50539600000002	-43.80109300000000	0.04910000000000	0.00000000000000	-0.08175700000000	0.00000000000000	-9.39587700000000	0.00000000000000	0.00000000000000	-14.30278000000000	0.00000000000000	
6.39664200000000	-4.22679900000000	121.08886000000000	-15.17101500000000	0.30173000000000	0.00000000000000	0.10107300000000	-71.44652600000001	763.03505600000005	-43.25282100000000	0.04822000000000	0.00000000000000	-0.08158700000000	0.00000000000000	-9.35439300000000	0.00000000000000	0.00000000000000	-14.36491800000000	0.00000000000000	
6.39830600000000	-3.23547600000000	126.93391300000000	-14.73446500000000	0.30386800000000	0.00000000000000	0.10153200000000	-72.43468300000001	758.38493500000004	-42.68651400000000	0.04734600000000	0.00000000000000	-0.08141400000000	0.00000000000000	-9.29659600000000	0.00000000000000	0.00000000000000	-14.42685400000000	0.00000000000000	
6.39996800000000	-2.20316900000000	132.95372599999999	-14.26858600000000	0.30592300000000	0.00000000000000	0.10197400000000	-73.40858100000000	753.55249000000003	-42.10221500000000	0.04648000000000	0.00000000000000	-0.08123900000000	0.00000000000000	-9.22611700000000	0.00000000000000	0.00000000000000	-14.48823100000000	0.00000000000000	
6.40163700000000	-1.13344400000000	139.16090800000001	-13.77723500000000	0.30789800000000	0.00000000000000	0.10240100000000	-74.36580499999999	748.53534999999999	-41.50000800000000	0.04562200000000	0.00000000000000	-0.08106000000000	0.00000000000000	-9.14490000000000	0.00000000000000	0.00000000000000	-14.54868200000000	0.00000000000000	
6.40331000000000	-0.02763100000000	145.55966200000000	-13.26133700000000	0.30979600000000	0.00000000000000	0.10281400000000	-75.30388600000001	743.33133499999997	-40.88002000000000	0.04477200000000	0.00000000000000	-0.08088000000000	0.00000000000000	-9.05337900000000	0.00000000000000	0.00000000000000	-14.60782600000000	0.00000000000000	
6.40496800000000	1.11470900000000	152.14692099999999	-12.71943800000000	0.31161500000000	0.00000000000000	0.10321300000000	-76.22030599999999	737.93847200000005	-40.24242200000000	0.04393000000000	0.00000000000000	-0.08069600000000	0.00000000000000	-8.95074100000000	0.00000000000000	0.00000000000000	-14.66527500000000	0.00000000000000	
6.40664200000000	2.29525700000000	158.91378700000001	-12.14834700000000	0.31335900000000	0.00000000000000	0.10360000000000	-77.11250600000000	732.35501399999998	-39.58742900000000	0.04309600000000	0.00000000000000	-0.08051000000000	0.00000000000000	-8.83523500000000	0.00000000000000	0.00000000000000	-14.72063200000000	0.00000000000000	
6.40830800000000	3.51641600000000	165.84710500000000	-11.54378000000000	0.31502700000000	0.00000000000000	0.10397600000000	-77.97789299999999	726.57945500000005	-38.91530500000000	0.04227000000000	0.00000000000000	-0.08032100000000	0.00000000000000	-8.70449600000000	0.00000000000000	0.00000000000000	-14.77349100000000	0.00000000000000	
6.40996700000000	4.78082600000000	172.93103700000000	-10.90097300000000	0.31662100000000	0.00000000000000	0.10434000000000	-78.81384400000000	720.61054500000000	-38.22636100000000	0.04145200000000	0.00000000000000	-0.08013000000000	0.00000000000000	-8.55586200000000	0.00000000000000	0.00000000000000	-14.82344200000000	0.00000000000000	
6.41164000000000	6.09094800000000	180.14851500000000	-10.21521800000000	0.31814000000000	0.00000000000000	0.10469300000000	-79.61771700000000	714.44731100000001	-37.52095400000000	0.04064200000000	0.00000000000000	-0.07993600000000	0.00000000000000	-8.38665700000000	0.00000000000000	0.00000000000000	-14.87006800000000	0.00000000000000	
